<svg width="23" height="23" viewBox="0 0 23 23" fill="none" xmlns="http://www.w3.org/2000/svg">
<g id="Button Refresh">
<mask id="mask0_3_813" style="mask-type:alpha" maskUnits="userSpaceOnUse" x="0" y="0" width="23" height="23">
<rect id="Rectangle 17" width="23" height="23" rx="11.5" fill="#C4C4C4"/>
</mask>
<g mask="url(#mask0_3_813)">
<g id="Component 5 &#226;&#128;&#147; 13" filter="url(#filter0_d_3_813)">
<g id="Mask Group 2">
<path id="Union 7" d="M9.55729 19.244C9.55729 18.9109 9.68962 18.5914 9.92517 18.3559C10.1607 18.1203 10.4802 17.988 10.8133 17.988C11.3057 17.9881 11.7965 17.932 12.2763 17.821C12.3323 17.808 12.3873 17.794 12.4433 17.78C13.6661 17.4604 14.7694 16.7915 15.6182 15.8551C16.4671 14.9186 17.0248 13.7552 17.2233 12.507C17.2333 12.443 17.2423 12.378 17.2503 12.314C17.2503 12.291 17.2553 12.267 17.2583 12.245C17.2653 12.184 17.2723 12.123 17.2773 12.062C17.2773 12.046 17.2773 12.03 17.2773 12.014C17.2823 11.947 17.2863 11.881 17.2903 11.814H15.5173C15.4009 11.8277 15.283 11.8066 15.1786 11.7532C15.0742 11.6999 14.988 11.6168 14.9309 11.5144C14.8738 11.412 14.8484 11.2949 14.8579 11.1781C14.8674 11.0612 14.9114 10.9498 14.9843 10.858L17.9663 6.072C18.0196 5.96806 18.1006 5.88085 18.2002 5.81995C18.2999 5.75905 18.4145 5.72683 18.5313 5.72683C18.6481 5.72683 18.7627 5.75905 18.8623 5.81995C18.962 5.88085 19.043 5.96806 19.0963 6.072L22.0793 10.858C22.1517 10.9499 22.1952 11.0613 22.2045 11.1779C22.2137 11.2946 22.1883 11.4114 22.1313 11.5136C22.0743 11.6158 21.9883 11.6988 21.8843 11.7523C21.7802 11.8058 21.6626 11.8272 21.5463 11.814H19.8083C19.8083 11.849 19.8083 11.884 19.8083 11.919C19.8083 11.954 19.8083 11.974 19.8083 12.001C19.8083 12.047 19.8033 12.092 19.8003 12.137L19.7953 12.211C19.7903 12.279 19.7833 12.347 19.7773 12.411V12.435L19.7553 12.623C19.7553 12.639 19.7553 12.655 19.7493 12.671L19.7253 12.845L19.7203 12.881L19.7093 12.948C19.7098 12.9557 19.7098 12.9633 19.7093 12.971C19.5078 14.1766 19.0632 15.3285 18.4025 16.3569C17.7419 17.3853 16.879 18.2685 15.8663 18.953C15.8443 18.968 15.8243 18.985 15.8023 19C14.8856 19.6096 13.8641 20.0446 12.7893 20.283L12.7393 20.293C12.1122 20.4274 11.4726 20.4944 10.8313 20.493C10.6654 20.4954 10.5007 20.4649 10.3467 20.4033C10.1927 20.3417 10.0524 20.2501 9.93399 20.134C9.81554 20.0179 9.72127 19.8794 9.65661 19.7267C9.59196 19.5739 9.5582 19.4099 9.55729 19.244ZM5.70829 18.913C4.80391 18.2894 4.02135 17.5055 3.39929 16.6C3.21033 16.3256 3.13809 15.9874 3.19848 15.6598C3.25886 15.3322 3.44693 15.042 3.72129 14.853C3.99566 14.664 4.33386 14.5918 4.66148 14.6522C4.98911 14.7126 5.27933 14.9006 5.46829 15.175C5.91751 15.8293 6.48325 16.3954 7.13729 16.845C7.27308 16.9387 7.38908 17.0582 7.47868 17.1968C7.56827 17.3353 7.6297 17.4901 7.65946 17.6524C7.68922 17.8146 7.68673 17.9812 7.65213 18.1425C7.61753 18.3038 7.55149 18.4567 7.45779 18.5925C7.36409 18.7283 7.24457 18.8443 7.10604 18.9339C6.96751 19.0235 6.81269 19.0849 6.65042 19.1147C6.48815 19.1444 6.32161 19.1419 6.1603 19.1073C5.99899 19.0727 5.84608 19.0067 5.71029 18.913H5.70829ZM2.98229 11.033C2.82128 10.997 2.66892 10.9297 2.53393 10.8349C2.39894 10.74 2.28395 10.6195 2.19555 10.4802C2.10714 10.3409 2.04704 10.1856 2.01869 10.023C1.99033 9.86052 1.99428 9.694 2.03029 9.533C2.26928 8.45837 2.70494 7.4372 3.31529 6.521C3.50076 6.24577 3.78762 6.05513 4.11321 5.99074C4.43879 5.92635 4.77662 5.99344 5.0529 6.17735C5.32917 6.36127 5.52141 6.64706 5.58763 6.97228C5.65385 7.29749 5.58865 7.6357 5.40629 7.913C4.9672 8.57224 4.65361 9.30689 4.48129 10.08C4.44581 10.2413 4.3788 10.394 4.2841 10.5293C4.18939 10.6646 4.06888 10.7799 3.92947 10.8684C3.79007 10.957 3.63454 11.0171 3.47181 11.0454C3.30909 11.0736 3.14239 11.0694 2.98129 11.033H2.98229ZM8.32329 4.058C8.29674 3.89514 8.30256 3.72865 8.34042 3.56804C8.37828 3.40744 8.44745 3.25587 8.54395 3.12203C8.64046 2.98818 8.76241 2.87468 8.90283 2.78802C9.04325 2.70137 9.19939 2.64325 9.36229 2.617C9.84238 2.53916 10.3279 2.50004 10.8143 2.5C11.1474 2.5 11.4669 2.63233 11.7024 2.86787C11.938 3.10342 12.0703 3.42289 12.0703 3.756C12.0703 4.08911 11.938 4.40858 11.7024 4.64413C11.4669 4.87967 11.1474 5.012 10.8143 5.012C10.4625 5.0132 10.1114 5.04263 9.76429 5.1C9.69814 5.11048 9.63127 5.11583 9.56429 5.116C9.26538 5.11617 8.9762 5.00972 8.74873 4.8158C8.52126 4.62187 8.37041 4.35318 8.32329 4.058Z" fill="url(#paint0_linear_3_813)"/>
</g>
</g>
</g>
</g>
<defs>
<filter id="filter0_d_3_813" x="-2" y="-1.5" width="28.2063" height="25.9931" filterUnits="userSpaceOnUse" color-interpolation-filters="sRGB">
<feFlood flood-opacity="0" result="BackgroundImageFix"/>
<feColorMatrix in="SourceAlpha" type="matrix" values="0 0 0 0 0 0 0 0 0 0 0 0 0 0 0 0 0 0 127 0" result="hardAlpha"/>
<feOffset/>
<feGaussianBlur stdDeviation="2"/>
<feComposite in2="hardAlpha" operator="out"/>
<feColorMatrix type="matrix" values="0 0 0 0 0 0 0 0 0 0 0 0 0 0 0 0 0 0 0.25 0"/>
<feBlend mode="normal" in2="BackgroundImageFix" result="effect1_dropShadow_3_813"/>
<feBlend mode="normal" in="SourceGraphic" in2="effect1_dropShadow_3_813" result="shape"/>
</filter>
<linearGradient id="paint0_linear_3_813" x1="8.46266" y1="4.74914" x2="13.5616" y2="21.8738" gradientUnits="userSpaceOnUse">
<stop stop-color="#00BCC8"/>
<stop offset="1" stop-color="#2787BD"/>
</linearGradient>
</defs>
</svg>
